<svg width="380" height="29" viewBox="0 0 380 29" fill="none" xmlns="http://www.w3.org/2000/svg">
<path d="M23.72 3.08H13.6V29H10.8V3.08H0.68V0.599998H23.72V3.08ZM56.3741 29V0.599998H59.1741V29H56.3741ZM119.856 29V5.88L109.576 23.84H107.816L97.4959 5.88V29H94.6959V0.599998H97.5759L108.656 20.04L119.816 0.599998H122.656V29H119.856ZM177.254 26.52V29H158.174V0.599998H176.894V3.08H160.974V13.32H174.854V15.68H160.974V26.52H177.254ZM210.949 29V0.599998H213.749V26.52H230.149V29H210.949ZM262.669 29V0.599998H265.469V29H262.669ZM303.791 5.76V29H300.991V0.599998H303.311L321.951 24.28V0.639998H324.751V29H322.151L303.791 5.76ZM379.37 26.52V29H360.29V0.599998H379.01V3.08H363.09V13.32H376.97V15.68H363.09V26.52H379.37Z" fill="white"/>
</svg>
